<svg width="275" height="64" viewBox="0 0 275 64" fill="none" xmlns="http://www.w3.org/2000/svg">
<path fill-rule="evenodd" clip-rule="evenodd" d="M41.3002 22.6V41.4L33.2002 46.2L25.0002 50.9V41.4L33.2002 36.7V27.3L25.0002 22.6L16.8002 27.3V46.2L8.7002 41.4V22.6L16.8002 17.8L25.0002 13.1L33.2002 17.8L41.3002 22.6Z" fill="#FF9A00"/>
<path d="M50.1001 25.8V22.1H64.9001V25.8H59.6001V40.6H55.5001V25.8H50.1001Z" fill="#1F1F1F"/>
<path d="M66.1001 33.7C66.1001 32.7 66.3001 31.7 66.6001 30.8C67.0001 29.9 67.5001 29.1 68.1001 28.5C68.7001 27.8 69.5001 27.3 70.4001 26.9C71.3001 26.5 72.3001 26.3 73.3001 26.3H73.8001V29.8C73.3001 29.8 72.8001 29.9 72.3001 30.1C71.8001 30.3 71.4001 30.6 71.1001 30.9C70.8001 31.2 70.5001 31.7 70.3001 32.1C70.1001 32.6 70.0001 33.1 70.0001 33.6V40.5H66.1001V33.7Z" fill="#1F1F1F"/>
<path d="M85.6 26.7H89.5V33.6C89.5 34.6 89.3 35.6 89 36.4C88.7 37.3 88.2 38.1 87.6 38.7C87 39.4 86.2 39.9 85.4 40.3C84.5 40.7 83.6 40.9 82.5 40.9C81.4 40.9 80.5 40.7 79.6 40.3C78.7 39.9 78 39.4 77.4 38.7C76.8 38 76.3 37.3 76 36.4C75.7 35.5 75.5 34.6 75.5 33.6V26.7H79.4V33.6C79.4 34.1 79.5 34.6 79.6 35.1C79.7 35.6 79.9 36 80.2 36.3C80.5 36.6 80.8 36.9 81.2 37.1C81.6 37.3 82.1 37.4 82.6 37.4C83.1 37.4 83.6 37.3 84 37.1C84.4 36.9 84.7 36.6 85 36.3C85.3 36 85.5 35.6 85.6 35.1C85.7 34.6 85.8 34.1 85.8 33.6V26.7H85.6Z" fill="#1F1F1F"/>
<path d="M102.4 40.6H98.3003V22.1H107.5C108.4 22.1 109.2 22.3 109.9 22.6C110.7 22.9 111.3 23.4 111.9 23.9C112.5 24.4 112.9 25.1 113.2 25.9C113.5 26.6 113.7 27.4 113.7 28.3C113.7 29.2 113.5 30 113.2 30.7C112.9 31.4 112.4 32.1 111.9 32.7C111.3 33.2 110.7 33.7 109.9 34C109.1 34.3 108.3 34.5 107.5 34.5H102.4V40.6ZM102.4 30.8H107.3C107.6 30.8 107.8 30.7 108.1 30.6C108.4 30.5 108.6 30.3 108.8 30.1C109 29.9 109.2 29.6 109.3 29.3C109.4 29 109.5 28.7 109.5 28.3C109.5 28 109.4 27.6 109.3 27.4C109.2 27.1 109 26.8 108.8 26.6C108.6 26.4 108.3 26.2 108.1 26.1C107.8 26 107.6 25.9 107.3 25.9H102.4V30.8Z" fill="#1F1F1F"/>
<path d="M122.2 26.3C123.3 26.3 124.3 26.5 125.2 26.9C126.1 27.3 127 27.8 127.6 28.5C128.3 29.2 128.8 29.9 129.2 30.8C129.6 31.7 129.8 32.6 129.8 33.7C129.8 33.9 129.8 34.2 129.7 34.4C129.7 34.6 129.7 34.8 129.6 35H118.4C118.7 35.7 119.2 36.3 119.8 36.8C120.5 37.3 121.2 37.5 122 37.5C122.6 37.5 123.2 37.4 123.7 37.1C124.2 36.8 124.7 36.5 125 36H129.3C129 36.7 128.7 37.4 128.2 38C127.7 38.6 127.2 39.1 126.5 39.6C125.9 40 125.2 40.4 124.4 40.6C123.6 40.9 122.8 41 122 41C120.9 41 119.9 40.8 119 40.4C118.1 40 117.2 39.5 116.5 38.8C115.8 38.1 115.3 37.4 114.9 36.5C114.5 35.6 114.3 34.7 114.3 33.7C114.3 32.7 114.5 31.7 114.9 30.8C115.3 29.9 115.9 29.1 116.5 28.5C117.2 27.8 118 27.3 119 26.9C120.1 26.5 121.1 26.3 122.2 26.3ZM125.8 32.3C125.5 31.6 125 31 124.4 30.5C123.8 30 123 29.8 122.2 29.8C121.4 29.8 120.6 30 120 30.5C119.4 31 118.9 31.6 118.6 32.3H125.8Z" fill="#1F1F1F"/>
<path d="M131.601 33.7C131.601 32.7 131.801 31.7 132.101 30.8C132.501 29.9 133.001 29.1 133.601 28.5C134.201 27.8 135.001 27.3 135.901 26.9C136.801 26.5 137.801 26.3 138.801 26.3H139.301V29.8C138.801 29.8 138.301 29.9 137.801 30.1C137.301 30.3 136.901 30.6 136.601 30.9C136.301 31.2 136.001 31.7 135.801 32.1C135.601 32.6 135.501 33.1 135.501 33.6V40.5H131.601V33.7Z" fill="#1F1F1F"/>
<path d="M142 26.7C142 26 142.1 25.4 142.4 24.7C142.7 24.1 143 23.6 143.5 23.1C144 22.6 144.5 22.3 145.1 22C145.7 21.7 146.4 21.6 147.1 21.6H148.5V24.7H148.4C148 24.7 147.6 24.8 147.2 24.9C146.8 25.1 146.5 25.3 146.2 25.5C146.1 25.6 146 25.8 145.9 26C145.8 26.2 145.8 26.4 145.8 26.6H148.4V30H145.8V40.6H142V30H140.4V26.7H142Z" fill="#1F1F1F"/>
<path d="M164.801 33.7C164.801 34.7 164.601 35.7 164.201 36.5C163.801 37.4 163.301 38.2 162.601 38.8C161.901 39.5 161.101 40 160.201 40.4C159.301 40.8 158.301 41 157.201 41C156.101 41 155.101 40.8 154.201 40.4C153.301 40 152.501 39.5 151.801 38.8C151.101 38.1 150.601 37.4 150.201 36.5C149.801 35.6 149.601 34.7 149.601 33.7C149.601 32.7 149.801 31.7 150.201 30.8C150.601 29.9 151.201 29.1 151.801 28.5C152.501 27.8 153.301 27.3 154.201 26.9C155.101 26.5 156.101 26.3 157.201 26.3C158.301 26.3 159.301 26.5 160.201 26.9C161.101 27.3 161.901 27.8 162.601 28.5C163.301 29.2 163.801 29.9 164.201 30.8C164.601 31.7 164.801 32.7 164.801 33.7ZM160.901 33.7C160.901 33.2 160.801 32.7 160.601 32.2C160.401 31.7 160.101 31.3 159.801 31C159.501 30.7 159.101 30.4 158.601 30.2C158.101 30 157.601 29.9 157.101 29.9C156.601 29.9 156.101 30 155.601 30.2C155.101 30.4 154.701 30.7 154.401 31C154.101 31.3 153.801 31.8 153.601 32.2C153.401 32.7 153.301 33.2 153.301 33.7C153.301 34.2 153.401 34.7 153.601 35.2C153.801 35.7 154.101 36.1 154.401 36.4C154.701 36.7 155.101 37 155.601 37.2C156.101 37.4 156.601 37.5 157.101 37.5C157.601 37.5 158.101 37.4 158.601 37.2C159.101 37 159.501 36.7 159.801 36.4C160.101 36.1 160.401 35.7 160.601 35.2C160.801 34.7 160.901 34.2 160.901 33.7Z" fill="#1F1F1F"/>
<path d="M166.5 33.7C166.5 32.7 166.7 31.7 167 30.8C167.4 29.9 167.9 29.1 168.5 28.5C169.1 27.8 169.9 27.3 170.8 26.9C171.7 26.5 172.7 26.3 173.7 26.3H174.2V29.8C173.7 29.8 173.2 29.9 172.7 30.1C172.2 30.3 171.8 30.6 171.5 30.9C171.2 31.2 170.9 31.7 170.7 32.1C170.5 32.6 170.4 33.1 170.4 33.6V40.5H166.5V33.7Z" fill="#1F1F1F"/>
<path d="M192.601 26.3C193.701 26.3 194.601 26.5 195.501 26.9C196.401 27.3 197.101 27.8 197.701 28.5C198.301 29.2 198.801 29.9 199.101 30.8C199.401 31.7 199.601 32.6 199.601 33.7V40.6H195.701V33.7C195.701 33.2 195.601 32.7 195.501 32.2C195.401 31.7 195.201 31.3 194.901 31C194.601 30.7 194.301 30.4 193.901 30.2C193.501 30 193.101 29.9 192.501 29.9C192.001 29.9 191.501 30 191.101 30.2C190.701 30.4 190.401 30.7 190.101 31C189.801 31.3 189.701 31.8 189.501 32.2C189.401 32.7 189.301 33.2 189.301 33.7V40.6H185.401V33.7C185.401 33.2 185.301 32.7 185.201 32.2C185.101 31.7 184.901 31.3 184.601 31C184.301 30.7 184.001 30.4 183.601 30.2C183.201 30 182.801 29.9 182.201 29.9C181.701 29.9 181.201 30 180.801 30.2C180.401 30.4 180.101 30.7 179.801 31C179.501 31.3 179.401 31.8 179.201 32.2C179.101 32.7 179.001 33.2 179.001 33.7V40.6H175.101V33.7C175.101 32.7 175.301 31.7 175.601 30.8C175.901 29.9 176.401 29.1 177.001 28.5C177.601 27.8 178.301 27.3 179.201 26.9C180.101 26.5 181.001 26.3 182.101 26.3C183.101 26.3 184.001 26.5 184.901 26.9C185.801 27.3 186.501 27.9 187.101 28.6C187.701 27.9 188.401 27.3 189.301 26.9C190.701 26.6 191.601 26.3 192.601 26.3Z" fill="#1F1F1F"/>
<path d="M208.9 26.3C209.9 26.3 210.9 26.5 211.9 26.9C212.8 27.3 213.7 27.8 214.3 28.5C215 29.2 215.5 29.9 215.9 30.8C216.3 31.7 216.5 32.6 216.5 33.7V40.6H212.9V38.9C212.5 39.6 211.9 40.1 211.2 40.5C210.5 40.9 209.7 41.1 208.9 41.1C207.8 41.1 206.8 40.9 205.9 40.5C205 40.1 204.2 39.6 203.5 38.9C202.8 38.2 202.3 37.5 201.9 36.6C201.5 35.7 201.3 34.8 201.3 33.8C201.3 32.8 201.5 31.8 201.9 30.9C202.3 30 202.9 29.2 203.5 28.6C204.2 27.9 205 27.4 205.9 27C206.8 26.5 207.8 26.3 208.9 26.3ZM208.9 37.5C209.4 37.5 209.9 37.4 210.4 37.2C210.9 37 211.3 36.7 211.6 36.4C211.9 36.1 212.2 35.7 212.4 35.2C212.6 34.7 212.7 34.2 212.7 33.7C212.7 33.2 212.6 32.7 212.4 32.2C212.2 31.7 211.9 31.3 211.6 31C211.3 30.7 210.8 30.4 210.4 30.2C209.9 30 209.4 29.9 208.9 29.9C208.4 29.9 207.9 30 207.4 30.2C206.9 30.4 206.5 30.7 206.2 31C205.9 31.3 205.6 31.8 205.4 32.2C205.2 32.7 205.1 33.2 205.1 33.7C205.1 34.2 205.2 34.7 205.4 35.2C205.6 35.7 205.9 36.1 206.2 36.4C206.5 36.7 206.9 37 207.4 37.2C207.9 37.4 208.4 37.5 208.9 37.5Z" fill="#1F1F1F"/>
<path d="M226 26.3C227.1 26.3 228 26.5 228.9 26.9C229.8 27.3 230.6 27.8 231.2 28.5C231.8 29.2 232.3 29.9 232.7 30.8C233.1 31.7 233.2 32.6 233.2 33.7V40.6H229.3V33.7C229.3 33.2 229.2 32.7 229.1 32.2C229 31.7 228.7 31.3 228.5 31C228.2 30.7 227.9 30.4 227.4 30.2C227 30 226.5 29.9 226 29.9C225.5 29.9 225 30 224.6 30.2C224.2 30.4 223.8 30.7 223.5 31C223.2 31.3 223 31.8 222.9 32.2C222.8 32.7 222.7 33.2 222.7 33.7V40.6H218.8V33.7C218.8 32.7 219 31.7 219.3 30.8C219.7 29.9 220.2 29.1 220.8 28.5C221.4 27.8 222.2 27.3 223.1 26.9C223.9 26.5 224.9 26.3 226 26.3Z" fill="#1F1F1F"/>
<path d="M242.5 29.8C242 29.8 241.5 29.9 241 30.1C240.5 30.3 240.1 30.6 239.8 30.9C239.5 31.2 239.2 31.7 239 32.1C238.8 32.6 238.7 33.1 238.7 33.6C238.7 34.1 238.8 34.6 239 35.1C239.2 35.6 239.5 36 239.8 36.3C240.1 36.6 240.5 36.9 241 37.1C241.5 37.3 242 37.4 242.5 37.4C243.2 37.4 243.9 37.2 244.4 36.9C245 36.5 245.4 36.1 245.8 35.5H249.9C249.7 36.3 249.3 37 248.9 37.7C248.4 38.4 247.9 38.9 247.2 39.4C246.5 39.9 245.8 40.3 245 40.5C244.2 40.8 243.3 40.9 242.5 40.9C241.4 40.9 240.4 40.7 239.5 40.3C238.6 39.9 237.7 39.4 237 38.7C236.3 38 235.8 37.3 235.4 36.4C235 35.5 234.8 34.6 234.8 33.6C234.8 32.6 235 31.6 235.4 30.7C235.8 29.8 236.4 29 237 28.4C237.7 27.7 238.5 27.2 239.5 26.8C240.4 26.4 241.4 26.2 242.5 26.2C243.4 26.2 244.2 26.3 245 26.6C245.8 26.9 246.6 27.3 247.2 27.8C247.9 28.3 248.4 28.9 248.9 29.5C249.4 30.2 249.7 30.9 249.9 31.7H246C245.7 31.1 245.2 30.6 244.6 30.2C244 30 243.3 29.8 242.5 29.8Z" fill="#1F1F1F"/>
<path d="M258.6 26.3C259.7 26.3 260.7 26.5 261.6 26.9C262.5 27.3 263.4 27.8 264 28.5C264.7 29.2 265.3 29.9 265.6 30.8C266 31.7 266.2 32.6 266.2 33.7C266.2 33.9 266.2 34.2 266.1 34.4C266.1 34.6 266.1 34.8 266 35H255C255.3 35.7 255.8 36.3 256.4 36.8C257.1 37.3 257.8 37.5 258.6 37.5C259.2 37.5 259.8 37.4 260.3 37.1C260.8 36.8 261.3 36.5 261.6 36H265.9C265.6 36.7 265.3 37.4 264.8 38C264.3 38.6 263.8 39.1 263.1 39.6C262.5 40 261.8 40.4 261 40.6C260.2 40.9 259.4 41 258.6 41C257.5 41 256.5 40.8 255.6 40.4C254.7 40 253.8 39.5 253.1 38.8C252.4 38.1 251.9 37.4 251.5 36.5C251.1 35.6 250.9 34.7 250.9 33.7C250.9 32.7 251.1 31.7 251.5 30.8C251.9 29.9 252.5 29.1 253.1 28.5C253.8 27.8 254.6 27.3 255.6 26.9C256.6 26.5 257.6 26.3 258.6 26.3ZM262.3 32.3C262 31.6 261.5 31 260.9 30.5C260.3 30 259.5 29.8 258.7 29.8C257.9 29.8 257.1 30 256.5 30.5C255.9 31 255.4 31.6 255.1 32.3H262.3Z" fill="#1F1F1F"/>
</svg>
